<svg width="1200" height="630" viewBox="0 0 1200 630" fill="none" xmlns="http://www.w3.org/2000/svg">
  <rect width="1200" height="630" rx="36" fill="#0F172A"/>
  <circle cx="1040" cy="120" r="180" fill="#1D4ED8" fill-opacity="0.35"/>
  <circle cx="210" cy="560" r="220" fill="#14B8A6" fill-opacity="0.18"/>
  <rect x="88" y="88" width="88" height="88" rx="24" fill="#2563EB"/>
  <path d="M122.5 145V118.75C122.5 116.679 124.179 115 126.25 115H137.5C145.784 115 152.5 121.716 152.5 130C152.5 138.284 145.784 145 137.5 145H122.5Z" fill="white"/>
  <path d="M126.25 161.25C124.179 161.25 122.5 159.571 122.5 157.5V145H137.5C145.784 145 152.5 151.716 152.5 160V161.25H126.25Z" fill="white"/>
  <text x="206" y="145" fill="white" font-family="'Arial', sans-serif" font-size="56" font-weight="700">Consultin</text>
  <text x="88" y="282" fill="white" font-family="'Arial', sans-serif" font-size="76" font-weight="700">
    Software de gestao para
  </text>
  <text x="88" y="370" fill="#67E8F9" font-family="'Arial', sans-serif" font-size="76" font-weight="700">
    clinicas no Brasil
  </text>
  <text x="88" y="450" fill="#CBD5E1" font-family="'Arial', sans-serif" font-size="32" font-weight="400">
    Agenda medica, prontuario, financeiro e operacao em um so lugar.
  </text>
  <rect x="88" y="500" width="324" height="58" rx="29" fill="#1E293B" stroke="#334155"/>
  <text x="124" y="538" fill="#F8FAFC" font-family="'Arial', sans-serif" font-size="28" font-weight="600">consultin.pmatz.com</text>
</svg>